<svg xmlns="http://www.w3.org/2000/svg" viewBox="0 0 128 128">
  <rect width="128" height="128" rx="24" fill="#0B2545"/>
  <!-- P -->
  <path d="M14 36h14c9 0 15 5 15 13s-6 13-15 13H22v18h-8V36zm8 7v12h5c5 0 8-2.5 8-6s-3-6-8-6h-5z" fill="#fff"/>
  <!-- B -->
  <path d="M48 36h13c8 0 13 4 13 10 0 4-2 7-6 9 5 1.5 8 5.5 8 10 0 7-5.5 11.5-14 11.5H48V36zm8 7v9h5c4 0 6-2 6-4.5S65 43 61 43h-5zm0 16v10h6c5 0 7-2 7-5s-2.5-5-7-5h-6z" fill="#fff"/>
  <!-- + -->
  <rect x="78" y="52" width="14" height="4" rx="2" fill="#3B82F6"/>
  <rect x="83" y="47" width="4" height="14" rx="2" fill="#3B82F6"/>
  <!-- J -->
  <path d="M96 36h8v30c0 7-4 12-12 12-4 0-7-1.5-9-4l4-5.5c1.5 1.5 3 2.5 5 2.5 3 0 4-2 4-5.5V36z" fill="#fff"/>
  <!-- Underline -->
  <rect x="14" y="88" width="100" height="4" rx="2" fill="#3B82F6"/>
  <!-- Water drop -->
  <path d="M108 18c0 0-6 9-6 14a6 6 0 0 0 12 0c0-5-6-14-6-14z" fill="#3B82F6" opacity="0.5"/>
</svg>
